<svg width="83" height="31" viewBox="0 0 83 31" fill="none" xmlns="http://www.w3.org/2000/svg">
<path fill-rule="evenodd" clip-rule="evenodd" d="M1.94372 2.08911C0.0751953 3.96046 0.0751953 6.9723 0.0751953 12.9961L0.0751953 18.0894C0.0751953 24.1131 0.0751953 27.125 1.94372 28.9963C3.81226 30.8676 6.81961 30.8676 12.8343 30.8676H70.2409C76.2555 30.8676 79.2629 30.8676 81.1316 28.9963C83 27.125 83 24.1131 83 18.0894V12.9961C83 6.97233 83 3.96046 81.1316 2.08911C79.2629 0.217773 76.2555 0.217773 70.2409 0.217773L12.8343 0.217773C6.81961 0.217773 3.81226 0.217773 1.94372 2.08911ZM40.3008 4.18153V24.4358H38.4372V4.18153H40.3008ZM6.32182 24.4358H8.24109V15.2419H19.4784V24.4358H21.3976V4.8223H19.4784V13.4311H8.24109V4.8223H6.32182V24.4358ZM25.7835 17.9165H36.3253V16.9136C36.3253 14.8148 35.769 13.1618 34.6564 11.9545C33.5624 10.7286 32.1068 10.1157 30.2895 10.1157C28.3981 10.1157 26.8497 10.7751 25.6444 12.0938C24.4391 13.4125 23.8364 15.1862 23.8364 17.4151C23.8364 19.6624 24.4484 21.4455 25.6722 22.7642C26.9146 24.0643 28.5093 24.7144 30.4564 24.7144C32.0511 24.7144 33.3305 24.3243 34.295 23.5443C35.2775 22.7456 35.8895 21.8448 36.1307 20.8418H34.2671C34.063 21.4176 33.6273 21.9284 32.9596 22.3741C32.3106 22.8013 31.4762 23.0149 30.4564 23.0149C29.0842 23.0149 27.9623 22.5506 27.0908 21.6219C26.2192 20.6932 25.7835 19.486 25.7835 18.0001V17.9165ZM27.1186 13.041C27.9345 12.2052 28.9822 11.7873 30.2617 11.7873C31.5227 11.7873 32.5239 12.1866 33.2656 12.9853C34.026 13.784 34.4247 14.8984 34.4618 16.3285H25.7835C25.8762 14.9541 26.3212 13.8582 27.1186 13.041ZM54.3377 12.0659C53.114 10.7658 51.6306 10.1157 49.8873 10.1157C48.7377 10.1157 47.7456 10.3665 46.9112 10.8679C46.0767 11.3509 45.4464 11.9823 45.0198 12.7624V10.3943H43.2395V29.757H45.1031V22.2627C45.5113 22.9871 46.1229 23.5814 46.939 24.0457C47.7548 24.4915 48.719 24.7144 49.8316 24.7144C51.6119 24.7144 53.114 24.0736 54.3377 22.792C55.5617 21.4919 56.1737 19.6996 56.1737 17.4151C56.1737 15.1305 55.5617 13.3475 54.3377 12.0659ZM53.0026 21.4826C52.1682 22.5042 51.0648 23.0149 49.6927 23.0149C48.3019 23.0149 47.1707 22.5134 46.2992 21.5105C45.4464 20.4889 45.0198 19.1702 45.0198 17.5543V17.2757C45.0198 15.6227 45.4464 14.304 46.2992 13.3196C47.1707 12.3166 48.3019 11.8152 49.6927 11.8152C51.0648 11.8152 52.1682 12.3352 53.0026 13.3753C53.8558 14.3969 54.2823 15.7434 54.2823 17.4151C54.2823 19.0867 53.8558 20.4425 53.0026 21.4826ZM69.937 17.9165H59.3952V18.0001C59.3952 19.486 59.8309 20.6932 60.7024 21.6219C61.5739 22.5506 62.696 23.0149 64.0681 23.0149C65.0879 23.0149 65.9224 22.8013 66.5714 22.3741C67.2391 21.9284 67.6748 21.4176 67.8786 20.8418H69.7424C69.5013 21.8448 68.8893 22.7456 67.9065 23.5443C66.9423 24.3243 65.6629 24.7144 64.0681 24.7144C62.121 24.7144 60.5261 24.0643 59.2838 22.7642C58.0601 21.4455 57.4481 19.6624 57.4481 17.4151C57.4481 15.1862 58.0507 13.4125 59.256 12.0938C60.4613 10.7751 62.0096 10.1157 63.9013 10.1157C65.7186 10.1157 67.1742 10.7286 68.2682 11.9545C69.3807 13.1618 69.937 14.8148 69.937 16.9136V17.9165ZM63.8734 11.7873C62.5938 11.7873 61.546 12.2052 60.7303 13.041C59.9328 13.8582 59.4879 14.9541 59.3952 16.3285H68.0735C68.0365 14.8984 67.6378 13.784 66.8774 12.9853C66.1357 12.1866 65.1344 11.7873 63.8734 11.7873ZM79.0303 10.3386H78.3629C76.2858 10.3386 74.7748 11.1373 73.829 12.7346V10.3943H72.0487V24.4358H73.9125V16.6071C73.9125 15.1584 74.3296 14.044 75.1641 13.2639C75.9985 12.4838 77.0649 12.0938 78.3629 12.0938H79.0303V10.3386Z" fill="white"/>
</svg>
