<svg width="222" height="15" viewBox="0 0 222 15" fill="none" xmlns="http://www.w3.org/2000/svg">
<mask id="path-1-outside-1_559_9723" maskUnits="userSpaceOnUse" x="-0.0275645" y="-1.01283" width="221.424" height="18.8708" fill="black">
<rect fill="white" x="-0.0275645" y="-1.01283" width="221.424" height="18.8708"/>
<path d="M69.0908 2.86948C69.5181 2.62217 71.7893 2.20889 73.8 2.01243C74.6751 1.92703 76.2862 1.85802 77.3803 1.8592C79.6212 1.86166 80.4349 2.16429 80.9605 3.19024C81.294 3.84162 81.4417 6.62136 81.2077 7.84642C81.073 8.55291 81.0887 8.59996 81.4122 8.45417C81.6052 8.3673 82.5887 8.12252 83.598 7.9104C84.6074 7.69827 86.3696 7.28693 87.5142 6.99631C88.6588 6.70568 89.9308 6.38411 90.3409 6.28191C90.751 6.17952 91.6297 6.03374 92.2935 5.95812C92.9573 5.8823 93.6435 5.73765 93.8182 5.63657C93.9928 5.53549 95.0462 5.30229 96.1592 5.1185C97.272 4.93451 98.601 4.6493 99.1126 4.48427C101.229 3.80216 104.268 3.31562 108.736 2.94385C111.266 2.73321 111.99 2.81087 112.578 3.35564C113.046 3.78892 113.08 3.93063 113.127 5.63533C113.165 7.00506 113.088 7.71842 112.816 8.52902C112.153 10.5031 112.096 10.3636 113.493 10.1892C114.17 10.1046 115.17 9.89867 115.714 9.73146C116.259 9.56444 117.143 9.30747 117.68 9.16048C118.216 9.01368 118.78 8.7812 118.933 8.64388C119.227 8.37936 120.806 7.93564 122.66 7.59654C123.276 7.48385 124.072 7.26435 124.429 7.10856C124.786 6.95297 126.085 6.57988 127.316 6.27935C128.546 5.97901 129.72 5.65618 129.923 5.56194C130.127 5.46771 130.923 5.24177 131.693 5.05972C132.462 4.87767 133.342 4.64731 133.649 4.54782C134.196 4.37062 135.58 4.05481 137.32 3.71015C137.801 3.61484 138.37 3.4358 138.583 3.31195C138.797 3.18829 139.132 3.13726 139.328 3.19876C139.523 3.26026 139.735 3.21845 139.798 3.10593C139.862 2.99322 140.25 2.89678 140.661 2.89142C141.636 2.87873 142.438 3.60681 142.316 4.39476C142.193 5.19112 141.824 6.19123 141.267 7.23518C140.931 7.86364 140.79 8.38276 140.841 8.80232C140.916 9.42973 140.916 9.42972 143.167 9.36059C145.232 9.29719 147.147 8.94831 149.329 8.23722C149.636 8.13734 150.266 8.00417 150.729 7.94132C151.192 7.87847 152.621 7.63725 153.905 7.40554C155.189 7.17363 156.831 6.94116 157.555 6.88897C158.279 6.83659 159.216 6.692 159.637 6.5674C160.892 6.19664 164.146 5.72859 166.68 5.55441C168.813 5.40772 169.092 5.42636 169.437 5.73917C169.928 6.18328 169.951 7.00137 169.499 7.98361C169.304 8.40715 169.149 8.91336 169.155 9.10857C169.16 9.30357 169.036 9.6643 168.879 9.91004C168.721 10.1558 168.643 10.4839 168.705 10.6391C168.837 10.9703 169.997 11.0054 170.813 10.7029C171.109 10.5932 171.942 10.4568 172.663 10.3997C174.104 10.2861 175.008 9.97767 178.055 8.56075C179.228 8.01532 180.81 7.45773 181.781 7.24727C182.709 7.04636 183.64 6.78253 183.85 6.66127C184.059 6.54001 184.559 6.41947 184.96 6.39316C185.361 6.36685 186.187 6.2112 186.796 6.04724C187.483 5.86256 188.452 5.7738 189.344 5.81373C190.526 5.86669 190.941 5.97766 191.658 6.43171C192.395 6.89916 192.576 7.13758 192.822 7.96526C193.113 8.94545 193.113 8.94545 194.503 8.89748C196.962 8.81234 198.556 8.45085 200.456 7.54661C201.016 7.27999 201.851 6.94262 202.312 6.79701C202.772 6.65139 203.777 6.32452 204.544 6.07063C205.311 5.81675 206.441 5.44508 207.055 5.24455C207.669 5.04402 208.76 4.80428 209.48 4.71191C210.2 4.61935 211.209 4.45429 211.722 4.3449C212.235 4.2357 213.757 4.06904 215.105 3.97475C217.503 3.80684 217.565 3.81268 218.058 4.25597C218.512 4.66384 218.595 4.94707 218.9 7.11669C219.147 8.88322 219.34 9.6618 219.622 10.0401C219.833 10.3236 220.071 10.7507 220.151 10.9893C220.766 12.8336 219.166 13.8149 218.019 12.2384C217.775 11.9034 217.552 11.5297 217.377 11.1216C216.779 9.73459 216.637 9.17932 216.61 8.11642C216.564 6.3045 216.421 6.1929 214.355 6.35298C213.455 6.42249 212.469 6.55757 212.161 6.65276C211.854 6.74815 210.845 6.89681 209.918 6.98308C208.984 7.07023 207.613 7.36087 206.84 7.63573C206.073 7.90835 204.984 8.25156 204.421 8.39832C202.84 8.80984 200.747 9.52229 199.215 10.1706C196.134 11.4736 193.587 11.8877 192.201 11.3105C191.32 10.9434 190.579 10.114 190.561 9.47564C190.534 8.49182 190.124 8.20171 188.806 8.2339C187.194 8.27306 184.661 8.66788 183.418 9.07343C179.345 10.4028 178.036 10.8558 177.469 11.1321C175.958 11.8678 172.076 13.109 170.122 13.4812C169.207 13.6554 168.818 13.6368 167.995 13.3798C167.081 13.0947 166.949 12.9803 166.576 12.1571C166.083 11.0685 166.024 9.99544 166.393 8.81275C166.543 8.33179 166.648 7.92231 166.626 7.90287C166.574 7.85648 162.671 8.39118 160.885 8.68958C160.114 8.81814 159.231 8.95149 158.922 8.98578C157.82 9.10811 156.285 9.36555 154.999 9.64337C154.281 9.79859 152.684 10.0791 151.45 10.267C150.217 10.4547 148.872 10.6938 148.462 10.7986C148.052 10.9033 147.129 11.1293 146.411 11.301C145.693 11.4726 144.645 11.7305 144.081 11.8743C142.709 12.2242 140.422 12.1872 139.514 11.8004C138.54 11.3849 138.141 10.4805 138.278 8.99522C138.388 7.80361 138.946 6.02581 139.282 5.79452C139.669 5.5288 139.115 5.61529 136.231 6.27127C135.769 6.37629 134.51 6.65844 133.433 6.8982C132.355 7.13796 131.224 7.4499 130.918 7.59115C130.612 7.73241 129.481 8.05469 128.404 8.30734C127.327 8.56018 125.86 8.95322 125.144 9.18106C123.709 9.63714 123.126 9.80076 121.326 10.2517C120.659 10.4185 119.621 10.7427 119.017 10.972C118.414 11.2013 117.803 11.3905 117.659 11.3923C117.515 11.3942 116.754 11.658 115.968 11.9787C114.609 12.5328 112.446 13.0224 111.29 13.0374C110.958 13.0418 110.555 12.8441 110.225 12.5143C109.729 12.0201 109.697 11.8982 109.746 10.7143C109.781 9.871 109.956 9.09993 110.267 8.41946C110.62 7.64744 110.728 7.10416 110.703 6.21697C110.671 5.03931 110.671 5.03932 110.083 5.04697C109.759 5.05118 108.981 5.14626 108.352 5.25833C107.724 5.37039 106.158 5.56966 104.871 5.70104C102.725 5.92054 101.841 6.11442 98.901 7.01209C98.338 7.18404 97.2878 7.38517 96.5672 7.45899C95.2433 7.59495 93.4545 7.99199 91.6774 8.54451C91.1436 8.71021 90.6215 8.79298 90.5169 8.72834C90.4122 8.6635 90.1781 8.70091 89.9963 8.81127C89.8145 8.92162 88.8672 9.15402 87.8914 9.32763C86.0866 9.64853 84.6599 10.0106 82.4811 10.7005C81.813 10.9119 80.7472 11.0918 80.1126 11.1C79.0897 11.1134 78.9132 11.0573 78.556 10.6058C78.0877 10.0143 78.0299 9.38455 78.3642 8.51612C78.9378 7.02614 78.9984 6.73831 78.9681 5.64556C78.9362 4.49114 78.9362 4.49114 78.224 4.3024C76.9849 3.97388 72.1064 4.44981 69.1019 5.19229C68.1792 5.42028 66.9199 5.69717 66.3036 5.80752C65.6873 5.91786 64.6815 6.19769 64.0685 6.42926C63.4555 6.66083 62.4519 7.01875 61.8383 7.22474C59.6956 7.94371 57.1835 8.89009 56.0799 9.39401C53.4066 10.6149 52.6873 10.9504 51.7728 11.4026C49.1936 12.6787 47.8789 13.1576 46.6981 13.2511C45.4836 13.3472 45.4655 13.3414 44.9586 12.6815C44.6771 12.3147 43.9583 11.0056 43.3615 9.77224C42.7647 8.53886 42.1166 7.44654 41.9212 7.34481C41.5777 7.16612 39.2934 7.38195 38.6705 7.65212C38.5175 7.71835 37.93 7.85449 37.365 7.9544C34.9689 8.37849 33.9611 8.59938 33.6684 8.76468C33.004 9.13946 31.6393 9.55989 30.6563 9.69219C29.6029 9.8342 27.8597 10.3855 26.3768 11.0455C25.918 11.2499 24.7463 11.64 23.7732 11.9126C22.8 12.1854 21.5032 12.6315 20.8914 12.904C19.1757 13.6686 18.0564 13.897 16.9821 13.7018C16.0493 13.5324 15.5484 13.1249 15.5317 12.522C15.5268 12.3455 15.4672 12.1457 15.3993 12.0779C15.3314 12.01 15.2295 11.5355 15.1729 11.0232C15.1165 10.5108 14.9983 10.02 14.9105 9.93213C14.3751 9.39722 10.9416 9.2939 9.26162 9.76217C8.69821 9.91928 7.62325 10.2834 6.87295 10.5714C6.12265 10.8593 5.28165 11.0979 5.00434 11.1015C4.72685 11.1051 4.04282 11.2785 3.48439 11.4867C2.92595 11.6949 2.1963 11.9219 1.86263 11.9911C1.25612 12.1169 1.25612 12.1169 1.2254 10.9994C1.19486 9.88184 1.19486 9.88184 2.21876 9.42914C2.78188 9.18007 3.58357 8.97201 4.00027 8.96659C4.76502 8.95663 5.91281 8.63336 7.61609 7.94804C9.48476 7.19632 10.8959 7.02329 13.3433 7.24529C14.5848 7.358 15.8595 7.58413 16.1757 7.74775C16.7569 8.04833 17.4893 9.29868 17.5301 10.0597C17.5599 10.6168 18.0037 11.1275 18.4528 11.1217C18.8011 11.1172 21.4556 10.2433 24.6335 9.08715C25.2978 8.84554 26.6375 8.42564 27.6107 8.15423C30.6118 7.31708 32.3058 6.83438 33.6629 6.43008C34.3796 6.21649 35.8911 5.90097 37.0219 5.72867C38.1527 5.55636 39.4434 5.27223 39.8903 5.09691C40.9442 4.68386 41.6967 4.69008 42.6357 5.11956C44.077 5.77878 45.3821 7.55927 46.4466 10.3179C46.6164 10.7586 46.8109 10.9482 47.0895 10.9451C47.4946 10.941 49.4695 10.1559 51.6618 9.12757C52.3242 8.81686 53.0699 8.49666 53.319 8.41609C53.568 8.33552 54.4016 7.93608 55.1713 7.52829C56.7249 6.70569 58.8701 5.83731 61.4015 5.00627C62.3222 4.70411 63.535 4.27337 64.0965 4.04892C64.6581 3.82466 65.9377 3.51021 66.9398 3.35032C67.9422 3.19042 68.9101 2.97415 69.0908 2.86948Z"/>
</mask>
<path d="M69.0908 2.86948C69.5181 2.62217 71.7893 2.20889 73.8 2.01243C74.6751 1.92703 76.2862 1.85802 77.3803 1.8592C79.6212 1.86166 80.4349 2.16429 80.9605 3.19024C81.294 3.84162 81.4417 6.62136 81.2077 7.84642C81.073 8.55291 81.0887 8.59996 81.4122 8.45417C81.6052 8.3673 82.5887 8.12252 83.598 7.9104C84.6074 7.69827 86.3696 7.28693 87.5142 6.99631C88.6588 6.70568 89.9308 6.38411 90.3409 6.28191C90.751 6.17952 91.6297 6.03374 92.2935 5.95812C92.9573 5.8823 93.6435 5.73765 93.8182 5.63657C93.9928 5.53549 95.0462 5.30229 96.1592 5.1185C97.272 4.93451 98.601 4.6493 99.1126 4.48427C101.229 3.80216 104.268 3.31562 108.736 2.94385C111.266 2.73321 111.99 2.81087 112.578 3.35564C113.046 3.78892 113.08 3.93063 113.127 5.63533C113.165 7.00506 113.088 7.71842 112.816 8.52902C112.153 10.5031 112.096 10.3636 113.493 10.1892C114.17 10.1046 115.17 9.89867 115.714 9.73146C116.259 9.56444 117.143 9.30747 117.68 9.16048C118.216 9.01368 118.78 8.7812 118.933 8.64388C119.227 8.37936 120.806 7.93564 122.66 7.59654C123.276 7.48385 124.072 7.26435 124.429 7.10856C124.786 6.95297 126.085 6.57988 127.316 6.27935C128.546 5.97901 129.72 5.65618 129.923 5.56194C130.127 5.46771 130.923 5.24177 131.693 5.05972C132.462 4.87767 133.342 4.64731 133.649 4.54782C134.196 4.37062 135.58 4.05481 137.32 3.71015C137.801 3.61484 138.37 3.4358 138.583 3.31195C138.797 3.18829 139.132 3.13726 139.328 3.19876C139.523 3.26026 139.735 3.21845 139.798 3.10593C139.862 2.99322 140.25 2.89678 140.661 2.89142C141.636 2.87873 142.438 3.60681 142.316 4.39476C142.193 5.19112 141.824 6.19123 141.267 7.23518C140.931 7.86364 140.79 8.38276 140.841 8.80232C140.916 9.42973 140.916 9.42972 143.167 9.36059C145.232 9.29719 147.147 8.94831 149.329 8.23722C149.636 8.13734 150.266 8.00417 150.729 7.94132C151.192 7.87847 152.621 7.63725 153.905 7.40554C155.189 7.17363 156.831 6.94116 157.555 6.88897C158.279 6.83659 159.216 6.692 159.637 6.5674C160.892 6.19664 164.146 5.72859 166.68 5.55441C168.813 5.40772 169.092 5.42636 169.437 5.73917C169.928 6.18328 169.951 7.00137 169.499 7.98361C169.304 8.40715 169.149 8.91336 169.155 9.10857C169.16 9.30357 169.036 9.6643 168.879 9.91004C168.721 10.1558 168.643 10.4839 168.705 10.6391C168.837 10.9703 169.997 11.0054 170.813 10.7029C171.109 10.5932 171.942 10.4568 172.663 10.3997C174.104 10.2861 175.008 9.97767 178.055 8.56075C179.228 8.01532 180.81 7.45773 181.781 7.24727C182.709 7.04636 183.64 6.78253 183.85 6.66127C184.059 6.54001 184.559 6.41947 184.96 6.39316C185.361 6.36685 186.187 6.2112 186.796 6.04724C187.483 5.86256 188.452 5.7738 189.344 5.81373C190.526 5.86669 190.941 5.97766 191.658 6.43171C192.395 6.89916 192.576 7.13758 192.822 7.96526C193.113 8.94545 193.113 8.94545 194.503 8.89748C196.962 8.81234 198.556 8.45085 200.456 7.54661C201.016 7.27999 201.851 6.94262 202.312 6.79701C202.772 6.65139 203.777 6.32452 204.544 6.07063C205.311 5.81675 206.441 5.44508 207.055 5.24455C207.669 5.04402 208.76 4.80428 209.48 4.71191C210.2 4.61935 211.209 4.45429 211.722 4.3449C212.235 4.2357 213.757 4.06904 215.105 3.97475C217.503 3.80684 217.565 3.81268 218.058 4.25597C218.512 4.66384 218.595 4.94707 218.9 7.11669C219.147 8.88322 219.34 9.6618 219.622 10.0401C219.833 10.3236 220.071 10.7507 220.151 10.9893C220.766 12.8336 219.166 13.8149 218.019 12.2384C217.775 11.9034 217.552 11.5297 217.377 11.1216C216.779 9.73459 216.637 9.17932 216.61 8.11642C216.564 6.3045 216.421 6.1929 214.355 6.35298C213.455 6.42249 212.469 6.55757 212.161 6.65276C211.854 6.74815 210.845 6.89681 209.918 6.98308C208.984 7.07023 207.613 7.36087 206.84 7.63573C206.073 7.90835 204.984 8.25156 204.421 8.39832C202.84 8.80984 200.747 9.52229 199.215 10.1706C196.134 11.4736 193.587 11.8877 192.201 11.3105C191.32 10.9434 190.579 10.114 190.561 9.47564C190.534 8.49182 190.124 8.20171 188.806 8.2339C187.194 8.27306 184.661 8.66788 183.418 9.07343C179.345 10.4028 178.036 10.8558 177.469 11.1321C175.958 11.8678 172.076 13.109 170.122 13.4812C169.207 13.6554 168.818 13.6368 167.995 13.3798C167.081 13.0947 166.949 12.9803 166.576 12.1571C166.083 11.0685 166.024 9.99544 166.393 8.81275C166.543 8.33179 166.648 7.92231 166.626 7.90287C166.574 7.85648 162.671 8.39118 160.885 8.68958C160.114 8.81814 159.231 8.95149 158.922 8.98578C157.82 9.10811 156.285 9.36555 154.999 9.64337C154.281 9.79859 152.684 10.0791 151.45 10.267C150.217 10.4547 148.872 10.6938 148.462 10.7986C148.052 10.9033 147.129 11.1293 146.411 11.301C145.693 11.4726 144.645 11.7305 144.081 11.8743C142.709 12.2242 140.422 12.1872 139.514 11.8004C138.54 11.3849 138.141 10.4805 138.278 8.99522C138.388 7.80361 138.946 6.02581 139.282 5.79452C139.669 5.5288 139.115 5.61529 136.231 6.27127C135.769 6.37629 134.51 6.65844 133.433 6.8982C132.355 7.13796 131.224 7.4499 130.918 7.59115C130.612 7.73241 129.481 8.05469 128.404 8.30734C127.327 8.56018 125.86 8.95322 125.144 9.18106C123.709 9.63714 123.126 9.80076 121.326 10.2517C120.659 10.4185 119.621 10.7427 119.017 10.972C118.414 11.2013 117.803 11.3905 117.659 11.3923C117.515 11.3942 116.754 11.658 115.968 11.9787C114.609 12.5328 112.446 13.0224 111.29 13.0374C110.958 13.0418 110.555 12.8441 110.225 12.5143C109.729 12.0201 109.697 11.8982 109.746 10.7143C109.781 9.871 109.956 9.09993 110.267 8.41946C110.62 7.64744 110.728 7.10416 110.703 6.21697C110.671 5.03931 110.671 5.03932 110.083 5.04697C109.759 5.05118 108.981 5.14626 108.352 5.25833C107.724 5.37039 106.158 5.56966 104.871 5.70104C102.725 5.92054 101.841 6.11442 98.901 7.01209C98.338 7.18404 97.2878 7.38517 96.5672 7.45899C95.2433 7.59495 93.4545 7.99199 91.6774 8.54451C91.1436 8.71021 90.6215 8.79298 90.5169 8.72834C90.4122 8.6635 90.1781 8.70091 89.9963 8.81127C89.8145 8.92162 88.8672 9.15402 87.8914 9.32763C86.0866 9.64853 84.6599 10.0106 82.4811 10.7005C81.813 10.9119 80.7472 11.0918 80.1126 11.1C79.0897 11.1134 78.9132 11.0573 78.556 10.6058C78.0877 10.0143 78.0299 9.38455 78.3642 8.51612C78.9378 7.02614 78.9984 6.73831 78.9681 5.64556C78.9362 4.49114 78.9362 4.49114 78.224 4.3024C76.9849 3.97388 72.1064 4.44981 69.1019 5.19229C68.1792 5.42028 66.9199 5.69717 66.3036 5.80752C65.6873 5.91786 64.6815 6.19769 64.0685 6.42926C63.4555 6.66083 62.4519 7.01875 61.8383 7.22474C59.6956 7.94371 57.1835 8.89009 56.0799 9.39401C53.4066 10.6149 52.6873 10.9504 51.7728 11.4026C49.1936 12.6787 47.8789 13.1576 46.6981 13.2511C45.4836 13.3472 45.4655 13.3414 44.9586 12.6815C44.6771 12.3147 43.9583 11.0056 43.3615 9.77224C42.7647 8.53886 42.1166 7.44654 41.9212 7.34481C41.5777 7.16612 39.2934 7.38195 38.6705 7.65212C38.5175 7.71835 37.93 7.85449 37.365 7.9544C34.9689 8.37849 33.9611 8.59938 33.6684 8.76468C33.004 9.13946 31.6393 9.55989 30.6563 9.69219C29.6029 9.8342 27.8597 10.3855 26.3768 11.0455C25.918 11.2499 24.7463 11.64 23.7732 11.9126C22.8 12.1854 21.5032 12.6315 20.8914 12.904C19.1757 13.6686 18.0564 13.897 16.9821 13.7018C16.0493 13.5324 15.5484 13.1249 15.5317 12.522C15.5268 12.3455 15.4672 12.1457 15.3993 12.0779C15.3314 12.01 15.2295 11.5355 15.1729 11.0232C15.1165 10.5108 14.9983 10.02 14.9105 9.93213C14.3751 9.39722 10.9416 9.2939 9.26162 9.76217C8.69821 9.91928 7.62325 10.2834 6.87295 10.5714C6.12265 10.8593 5.28165 11.0979 5.00434 11.1015C4.72685 11.1051 4.04282 11.2785 3.48439 11.4867C2.92595 11.6949 2.1963 11.9219 1.86263 11.9911C1.25612 12.1169 1.25612 12.1169 1.2254 10.9994C1.19486 9.88184 1.19486 9.88184 2.21876 9.42914C2.78188 9.18007 3.58357 8.97201 4.00027 8.96659C4.76502 8.95663 5.91281 8.63336 7.61609 7.94804C9.48476 7.19632 10.8959 7.02329 13.3433 7.24529C14.5848 7.358 15.8595 7.58413 16.1757 7.74775C16.7569 8.04833 17.4893 9.29868 17.5301 10.0597C17.5599 10.6168 18.0037 11.1275 18.4528 11.1217C18.8011 11.1172 21.4556 10.2433 24.6335 9.08715C25.2978 8.84554 26.6375 8.42564 27.6107 8.15423C30.6118 7.31708 32.3058 6.83438 33.6629 6.43008C34.3796 6.21649 35.8911 5.90097 37.0219 5.72867C38.1527 5.55636 39.4434 5.27223 39.8903 5.09691C40.9442 4.68386 41.6967 4.69008 42.6357 5.11956C44.077 5.77878 45.3821 7.55927 46.4466 10.3179C46.6164 10.7586 46.8109 10.9482 47.0895 10.9451C47.4946 10.941 49.4695 10.1559 51.6618 9.12757C52.3242 8.81686 53.0699 8.49666 53.319 8.41609C53.568 8.33552 54.4016 7.93608 55.1713 7.52829C56.7249 6.70569 58.8701 5.83731 61.4015 5.00627C62.3222 4.70411 63.535 4.27337 64.0965 4.04892C64.6581 3.82466 65.9377 3.51021 66.9398 3.35032C67.9422 3.19042 68.9101 2.97415 69.0908 2.86948Z" fill="#FF9300"/>
<path d="M69.0908 2.86948C69.5181 2.62217 71.7893 2.20889 73.8 2.01243C74.6751 1.92703 76.2862 1.85802 77.3803 1.8592C79.6212 1.86166 80.4349 2.16429 80.9605 3.19024C81.294 3.84162 81.4417 6.62136 81.2077 7.84642C81.073 8.55291 81.0887 8.59996 81.4122 8.45417C81.6052 8.3673 82.5887 8.12252 83.598 7.9104C84.6074 7.69827 86.3696 7.28693 87.5142 6.99631C88.6588 6.70568 89.9308 6.38411 90.3409 6.28191C90.751 6.17952 91.6297 6.03374 92.2935 5.95812C92.9573 5.8823 93.6435 5.73765 93.8182 5.63657C93.9928 5.53549 95.0462 5.30229 96.1592 5.1185C97.272 4.93451 98.601 4.6493 99.1126 4.48427C101.229 3.80216 104.268 3.31562 108.736 2.94385C111.266 2.73321 111.99 2.81087 112.578 3.35564C113.046 3.78892 113.08 3.93063 113.127 5.63533C113.165 7.00506 113.088 7.71842 112.816 8.52902C112.153 10.5031 112.096 10.3636 113.493 10.1892C114.17 10.1046 115.17 9.89867 115.714 9.73146C116.259 9.56444 117.143 9.30747 117.68 9.16048C118.216 9.01368 118.78 8.7812 118.933 8.64388C119.227 8.37936 120.806 7.93564 122.66 7.59654C123.276 7.48385 124.072 7.26435 124.429 7.10856C124.786 6.95297 126.085 6.57988 127.316 6.27935C128.546 5.97901 129.72 5.65618 129.923 5.56194C130.127 5.46771 130.923 5.24177 131.693 5.05972C132.462 4.87767 133.342 4.64731 133.649 4.54782C134.196 4.37062 135.58 4.05481 137.32 3.71015C137.801 3.61484 138.37 3.4358 138.583 3.31195C138.797 3.18829 139.132 3.13726 139.328 3.19876C139.523 3.26026 139.735 3.21845 139.798 3.10593C139.862 2.99322 140.25 2.89678 140.661 2.89142C141.636 2.87873 142.438 3.60681 142.316 4.39476C142.193 5.19112 141.824 6.19123 141.267 7.23518C140.931 7.86364 140.79 8.38276 140.841 8.80232C140.916 9.42973 140.916 9.42972 143.167 9.36059C145.232 9.29719 147.147 8.94831 149.329 8.23722C149.636 8.13734 150.266 8.00417 150.729 7.94132C151.192 7.87847 152.621 7.63725 153.905 7.40554C155.189 7.17363 156.831 6.94116 157.555 6.88897C158.279 6.83659 159.216 6.692 159.637 6.5674C160.892 6.19664 164.146 5.72859 166.68 5.55441C168.813 5.40772 169.092 5.42636 169.437 5.73917C169.928 6.18328 169.951 7.00137 169.499 7.98361C169.304 8.40715 169.149 8.91336 169.155 9.10857C169.16 9.30357 169.036 9.6643 168.879 9.91004C168.721 10.1558 168.643 10.4839 168.705 10.6391C168.837 10.9703 169.997 11.0054 170.813 10.7029C171.109 10.5932 171.942 10.4568 172.663 10.3997C174.104 10.2861 175.008 9.97767 178.055 8.56075C179.228 8.01532 180.81 7.45773 181.781 7.24727C182.709 7.04636 183.64 6.78253 183.85 6.66127C184.059 6.54001 184.559 6.41947 184.96 6.39316C185.361 6.36685 186.187 6.2112 186.796 6.04724C187.483 5.86256 188.452 5.7738 189.344 5.81373C190.526 5.86669 190.941 5.97766 191.658 6.43171C192.395 6.89916 192.576 7.13758 192.822 7.96526C193.113 8.94545 193.113 8.94545 194.503 8.89748C196.962 8.81234 198.556 8.45085 200.456 7.54661C201.016 7.27999 201.851 6.94262 202.312 6.79701C202.772 6.65139 203.777 6.32452 204.544 6.07063C205.311 5.81675 206.441 5.44508 207.055 5.24455C207.669 5.04402 208.76 4.80428 209.48 4.71191C210.2 4.61935 211.209 4.45429 211.722 4.3449C212.235 4.2357 213.757 4.06904 215.105 3.97475C217.503 3.80684 217.565 3.81268 218.058 4.25597C218.512 4.66384 218.595 4.94707 218.9 7.11669C219.147 8.88322 219.34 9.6618 219.622 10.0401C219.833 10.3236 220.071 10.7507 220.151 10.9893C220.766 12.8336 219.166 13.8149 218.019 12.2384C217.775 11.9034 217.552 11.5297 217.377 11.1216C216.779 9.73459 216.637 9.17932 216.61 8.11642C216.564 6.3045 216.421 6.1929 214.355 6.35298C213.455 6.42249 212.469 6.55757 212.161 6.65276C211.854 6.74815 210.845 6.89681 209.918 6.98308C208.984 7.07023 207.613 7.36087 206.84 7.63573C206.073 7.90835 204.984 8.25156 204.421 8.39832C202.84 8.80984 200.747 9.52229 199.215 10.1706C196.134 11.4736 193.587 11.8877 192.201 11.3105C191.32 10.9434 190.579 10.114 190.561 9.47564C190.534 8.49182 190.124 8.20171 188.806 8.2339C187.194 8.27306 184.661 8.66788 183.418 9.07343C179.345 10.4028 178.036 10.8558 177.469 11.1321C175.958 11.8678 172.076 13.109 170.122 13.4812C169.207 13.6554 168.818 13.6368 167.995 13.3798C167.081 13.0947 166.949 12.9803 166.576 12.1571C166.083 11.0685 166.024 9.99544 166.393 8.81275C166.543 8.33179 166.648 7.92231 166.626 7.90287C166.574 7.85648 162.671 8.39118 160.885 8.68958C160.114 8.81814 159.231 8.95149 158.922 8.98578C157.82 9.10811 156.285 9.36555 154.999 9.64337C154.281 9.79859 152.684 10.0791 151.45 10.267C150.217 10.4547 148.872 10.6938 148.462 10.7986C148.052 10.9033 147.129 11.1293 146.411 11.301C145.693 11.4726 144.645 11.7305 144.081 11.8743C142.709 12.2242 140.422 12.1872 139.514 11.8004C138.54 11.3849 138.141 10.4805 138.278 8.99522C138.388 7.80361 138.946 6.02581 139.282 5.79452C139.669 5.5288 139.115 5.61529 136.231 6.27127C135.769 6.37629 134.51 6.65844 133.433 6.8982C132.355 7.13796 131.224 7.4499 130.918 7.59115C130.612 7.73241 129.481 8.05469 128.404 8.30734C127.327 8.56018 125.86 8.95322 125.144 9.18106C123.709 9.63714 123.126 9.80076 121.326 10.2517C120.659 10.4185 119.621 10.7427 119.017 10.972C118.414 11.2013 117.803 11.3905 117.659 11.3923C117.515 11.3942 116.754 11.658 115.968 11.9787C114.609 12.5328 112.446 13.0224 111.29 13.0374C110.958 13.0418 110.555 12.8441 110.225 12.5143C109.729 12.0201 109.697 11.8982 109.746 10.7143C109.781 9.871 109.956 9.09993 110.267 8.41946C110.62 7.64744 110.728 7.10416 110.703 6.21697C110.671 5.03931 110.671 5.03932 110.083 5.04697C109.759 5.05118 108.981 5.14626 108.352 5.25833C107.724 5.37039 106.158 5.56966 104.871 5.70104C102.725 5.92054 101.841 6.11442 98.901 7.01209C98.338 7.18404 97.2878 7.38517 96.5672 7.45899C95.2433 7.59495 93.4545 7.99199 91.6774 8.54451C91.1436 8.71021 90.6215 8.79298 90.5169 8.72834C90.4122 8.6635 90.1781 8.70091 89.9963 8.81127C89.8145 8.92162 88.8672 9.15402 87.8914 9.32763C86.0866 9.64853 84.6599 10.0106 82.4811 10.7005C81.813 10.9119 80.7472 11.0918 80.1126 11.1C79.0897 11.1134 78.9132 11.0573 78.556 10.6058C78.0877 10.0143 78.0299 9.38455 78.3642 8.51612C78.9378 7.02614 78.9984 6.73831 78.9681 5.64556C78.9362 4.49114 78.9362 4.49114 78.224 4.3024C76.9849 3.97388 72.1064 4.44981 69.1019 5.19229C68.1792 5.42028 66.9199 5.69717 66.3036 5.80752C65.6873 5.91786 64.6815 6.19769 64.0685 6.42926C63.4555 6.66083 62.4519 7.01875 61.8383 7.22474C59.6956 7.94371 57.1835 8.89009 56.0799 9.39401C53.4066 10.6149 52.6873 10.9504 51.7728 11.4026C49.1936 12.6787 47.8789 13.1576 46.6981 13.2511C45.4836 13.3472 45.4655 13.3414 44.9586 12.6815C44.6771 12.3147 43.9583 11.0056 43.3615 9.77224C42.7647 8.53886 42.1166 7.44654 41.9212 7.34481C41.5777 7.16612 39.2934 7.38195 38.6705 7.65212C38.5175 7.71835 37.93 7.85449 37.365 7.9544C34.9689 8.37849 33.9611 8.59938 33.6684 8.76468C33.004 9.13946 31.6393 9.55989 30.6563 9.69219C29.6029 9.8342 27.8597 10.3855 26.3768 11.0455C25.918 11.2499 24.7463 11.64 23.7732 11.9126C22.8 12.1854 21.5032 12.6315 20.8914 12.904C19.1757 13.6686 18.0564 13.897 16.9821 13.7018C16.0493 13.5324 15.5484 13.1249 15.5317 12.522C15.5268 12.3455 15.4672 12.1457 15.3993 12.0779C15.3314 12.01 15.2295 11.5355 15.1729 11.0232C15.1165 10.5108 14.9983 10.02 14.9105 9.93213C14.3751 9.39722 10.9416 9.2939 9.26162 9.76217C8.69821 9.91928 7.62325 10.2834 6.87295 10.5714C6.12265 10.8593 5.28165 11.0979 5.00434 11.1015C4.72685 11.1051 4.04282 11.2785 3.48439 11.4867C2.92595 11.6949 2.1963 11.9219 1.86263 11.9911C1.25612 12.1169 1.25612 12.1169 1.2254 10.9994C1.19486 9.88184 1.19486 9.88184 2.21876 9.42914C2.78188 9.18007 3.58357 8.97201 4.00027 8.96659C4.76502 8.95663 5.91281 8.63336 7.61609 7.94804C9.48476 7.19632 10.8959 7.02329 13.3433 7.24529C14.5848 7.358 15.8595 7.58413 16.1757 7.74775C16.7569 8.04833 17.4893 9.29868 17.5301 10.0597C17.5599 10.6168 18.0037 11.1275 18.4528 11.1217C18.8011 11.1172 21.4556 10.2433 24.6335 9.08715C25.2978 8.84554 26.6375 8.42564 27.6107 8.15423C30.6118 7.31708 32.3058 6.83438 33.6629 6.43008C34.3796 6.21649 35.8911 5.90097 37.0219 5.72867C38.1527 5.55636 39.4434 5.27223 39.8903 5.09691C40.9442 4.68386 41.6967 4.69008 42.6357 5.11956C44.077 5.77878 45.3821 7.55927 46.4466 10.3179C46.6164 10.7586 46.8109 10.9482 47.0895 10.9451C47.4946 10.941 49.4695 10.1559 51.6618 9.12757C52.3242 8.81686 53.0699 8.49666 53.319 8.41609C53.568 8.33552 54.4016 7.93608 55.1713 7.52829C56.7249 6.70569 58.8701 5.83731 61.4015 5.00627C62.3222 4.70411 63.535 4.27337 64.0965 4.04892C64.6581 3.82466 65.9377 3.51021 66.9398 3.35032C67.9422 3.19042 68.9101 2.97415 69.0908 2.86948Z" stroke="#FF9300" stroke-width="2" mask="url(#path-1-outside-1_559_9723)"/>
</svg>
