<svg width="16" height="16" viewBox="0 0 16 16" fill="none" xmlns="http://www.w3.org/2000/svg">
<path fill-rule="evenodd" clip-rule="evenodd" d="M8 16C12.4183 16 16 12.4183 16 8C16 3.58172 12.4183 0 8 0C3.58172 0 0 3.58172 0 8C0 12.4183 3.58172 16 8 16ZM7.38112 2.61538L3.79364 7.83834C3.639 8.06347 3.80018 8.36972 4.0733 8.36972H6.7465C6.93389 8.36972 7.08579 8.52162 7.08579 8.70901V13.2588C7.08579 13.5858 7.50277 13.7236 7.69757 13.461L12.1699 7.43216C12.3359 7.20827 12.1761 6.89073 11.8974 6.89073H8.33936C8.15198 6.89073 8.00007 6.73882 8.00007 6.55144V2.80748C8.00007 2.47421 7.56981 2.34067 7.38112 2.61538Z" fill="black"/>
<path fill-rule="evenodd" clip-rule="evenodd" d="M8 16C12.4183 16 16 12.4183 16 8C16 3.58172 12.4183 0 8 0C3.58172 0 0 3.58172 0 8C0 12.4183 3.58172 16 8 16ZM7.38112 2.61538L3.79364 7.83834C3.639 8.06347 3.80018 8.36972 4.0733 8.36972H6.7465C6.93389 8.36972 7.08579 8.52162 7.08579 8.70901V13.2588C7.08579 13.5858 7.50277 13.7236 7.69757 13.461L12.1699 7.43216C12.3359 7.20827 12.1761 6.89073 11.8974 6.89073H8.33936C8.15198 6.89073 8.00007 6.73882 8.00007 6.55144V2.80748C8.00007 2.47421 7.56981 2.34067 7.38112 2.61538Z" fill="white"/>
</svg>
